<svg width="179" height="174" viewBox="0 0 179 174" fill="none" xmlns="http://www.w3.org/2000/svg">
<rect x="23" width="133" height="90" fill="white"/>
<rect x="23" width="133" height="90" fill="url(#paint0_linear_954_77)"/>
<rect x="7" y="76" width="164" height="77" rx="17" fill="#FFEAEC"/>
<rect x="24" y="58" width="131" height="95" rx="10" fill="#FFEAEC"/>
<rect x="98" y="90" width="54" height="39" rx="5" fill="black"/>
<rect x="103" y="95" width="44" height="29" fill="#FFEAEC"/>
<rect x="103" y="95" width="44" height="29" fill="url(#paint1_radial_954_77)"/>
<ellipse cx="125.5" cy="103.5" rx="15.5" ry="14.5" fill="#414140"/>
<rect x="112" y="90" width="26" height="5" fill="black"/>
<rect x="27" y="90" width="54" height="39" rx="5" fill="black"/>
<rect x="32" y="95" width="44" height="29" fill="#FFEAEC"/>
<rect x="32" y="95" width="44" height="29" fill="url(#paint2_radial_954_77)"/>
<ellipse cx="54.5" cy="103.5" rx="15.5" ry="14.5" fill="#414140"/>
<rect x="41" y="90" width="26" height="5" fill="black"/>
<rect x="81" y="101" width="17" height="5" fill="black"/>
<rect x="82" y="117" width="15" height="10" rx="1" fill="url(#paint3_linear_954_77)"/>
<path d="M0 24C0 10.7452 10.7452 0 24 0V78C24 84.6274 18.6274 90 12 90C5.37258 90 0 84.6274 0 78V24Z" fill="white"/>
<path d="M0 24C0 10.7452 10.7452 0 24 0V78C24 84.6274 18.6274 90 12 90C5.37258 90 0 84.6274 0 78V24Z" fill="url(#paint4_linear_954_77)"/>
<path d="M155 0C168.255 0 179 10.7452 179 24V78C179 84.6274 173.627 90 167 90C160.373 90 155 84.6274 155 78V0Z" fill="white"/>
<path d="M155 0C168.255 0 179 10.7452 179 24V78C179 84.6274 173.627 90 167 90C160.373 90 155 84.6274 155 78V0Z" fill="url(#paint5_linear_954_77)"/>
<rect x="68" y="130" width="19" height="7" rx="3" fill="#414140"/>
<rect x="91" y="130" width="19" height="7" rx="3" fill="#414140"/>
<rect x="79" y="147" width="20" height="12" rx="4" fill="#414140"/>
<rect x="94" y="147" width="27" height="10" rx="4" transform="rotate(90 94 147)" fill="#414140"/>
<rect x="83" y="160" width="12" height="9" rx="2" fill="#CDCDCD"/>
<path d="M88.8037 160.049C88.7372 160.122 88.7199 160.276 88.7199 160.861C88.7174 161.223 88.71 161.394 88.6903 161.394C88.6755 161.394 88.6287 161.367 88.5868 161.336C88.5424 161.304 88.3426 161.167 88.1404 161.03C87.7484 160.768 87.6818 160.744 87.5363 160.817C87.4253 160.876 87.3736 161.059 87.4352 161.177C87.4599 161.221 87.8519 161.504 88.4289 161.896L88.7174 162.092V162.336C88.7174 162.887 88.6829 163.939 88.6657 163.939C88.6459 163.939 87.1146 163.09 87.0851 163.06C87.0752 163.053 87.0456 162.781 87.016 162.459C86.9297 161.48 86.9248 161.458 86.7719 161.394C86.6634 161.35 86.5376 161.382 86.4637 161.47C86.4119 161.529 86.3995 161.571 86.3995 161.671C86.3995 161.796 86.4341 162.241 86.4637 162.537C86.4735 162.63 86.4711 162.691 86.4563 162.691C86.4439 162.691 86.2023 162.564 85.9187 162.405C85.317 162.072 85.2233 162.045 85.0926 162.172C85.0359 162.231 85.0187 162.268 85.0187 162.346C85.0187 162.4 85.031 162.468 85.0458 162.5C85.0606 162.537 85.2677 162.671 85.6129 162.874C85.9088 163.048 86.153 163.197 86.153 163.205C86.153 163.212 85.9409 163.322 85.682 163.449C85.4231 163.576 85.1765 163.711 85.137 163.748C85.068 163.811 85.0631 163.828 85.0754 163.931C85.0852 164.022 85.105 164.063 85.1642 164.115C85.3022 164.237 85.3294 164.23 86.1949 163.821L86.7694 163.55L87.1935 163.797C87.8248 164.159 88.3476 164.479 88.3476 164.501C88.3476 164.521 86.8064 165.431 86.7719 165.431C86.762 165.431 86.4883 165.306 86.1628 165.154C85.391 164.79 85.3664 164.783 85.2529 164.819C85.0852 164.873 85.0137 165.088 85.1198 165.22C85.1518 165.262 85.359 165.379 85.6623 165.531C85.9335 165.663 86.153 165.778 86.153 165.785C86.153 165.79 85.9113 165.94 85.6129 166.113C85.317 166.289 85.0606 166.448 85.0458 166.468C84.9546 166.578 85.0063 166.791 85.142 166.862C85.285 166.935 85.3294 166.918 86.0814 166.492C86.2861 166.378 86.4587 166.289 86.4661 166.297C86.4735 166.304 86.4661 166.429 86.4513 166.573C86.3724 167.336 86.3847 167.5 86.5253 167.571C86.6486 167.635 86.767 167.618 86.8557 167.525C86.942 167.432 86.9248 167.557 87.0308 166.385C87.053 166.138 87.0801 165.945 87.0974 165.927C87.127 165.9 88.5942 165.071 88.6583 165.047C88.6879 165.037 88.6928 165.191 88.6928 165.964V166.891L88.133 167.28C87.8248 167.495 87.5363 167.706 87.4895 167.747C87.4105 167.821 87.4056 167.835 87.4179 167.941C87.4401 168.134 87.6078 168.242 87.7829 168.171C87.8248 168.154 88.0418 168.014 88.2637 167.86C88.4881 167.708 88.678 167.584 88.6903 167.584C88.7026 167.584 88.7174 167.867 88.7224 168.215C88.7347 169.005 88.7273 168.988 88.9912 168.997C89.2723 169.007 89.2649 169.027 89.2797 168.224C89.2895 167.676 89.2969 167.584 89.3265 167.593C89.3462 167.603 89.5583 167.74 89.8 167.902C90.3055 168.242 90.3597 168.259 90.5077 168.112C90.5742 168.046 90.5915 168.009 90.5915 167.933C90.5915 167.804 90.5545 167.762 90.266 167.557C90.1254 167.459 89.9405 167.327 89.8517 167.266C89.763 167.202 89.6052 167.092 89.5016 167.021L89.3092 166.894V165.964C89.3092 165.088 89.3117 165.034 89.3536 165.049C89.4227 165.076 90.9096 165.922 90.9244 165.942C90.9293 165.954 90.9638 166.258 90.9984 166.62C91.0797 167.498 91.0773 167.473 91.1636 167.547C91.277 167.642 91.42 167.632 91.5285 167.522L91.6099 167.439L91.5926 167.114C91.5828 166.935 91.563 166.681 91.5507 166.549C91.5359 166.417 91.5285 166.302 91.5359 166.297C91.5433 166.289 91.7652 166.404 92.0315 166.554C92.2954 166.705 92.5543 166.845 92.6036 166.864C92.7195 166.913 92.8453 166.891 92.9242 166.813C93.0056 166.73 93.008 166.529 92.9291 166.451C92.8971 166.419 92.6431 166.26 92.362 166.094C92.0784 165.927 91.8491 165.785 91.8491 165.776C91.8491 165.768 92.0784 165.651 92.357 165.519C92.7565 165.326 92.8699 165.26 92.8995 165.208C92.9735 165.064 92.9193 164.902 92.7738 164.831C92.648 164.773 92.6899 164.758 91.8121 165.169C91.5828 165.277 91.3559 165.379 91.3115 165.399L91.2277 165.433L90.769 165.167C89.9528 164.694 89.6545 164.513 89.6545 164.496C89.6545 164.479 90.7468 163.824 91.0847 163.64L91.2449 163.552L91.8367 163.826C92.7294 164.239 92.7146 164.235 92.8502 164.1C92.9168 164.034 92.9341 163.997 92.9341 163.919C92.9341 163.758 92.8724 163.709 92.3496 163.459C92.0883 163.334 91.8737 163.222 91.8737 163.21C91.8737 163.185 92.0094 163.099 92.5395 162.786C92.7072 162.686 92.8773 162.581 92.9143 162.549C93.0943 162.397 92.971 162.099 92.7269 162.099C92.6406 162.099 92.6036 162.116 92.145 162.373C92.0439 162.429 91.8663 162.527 91.7529 162.588L91.5458 162.698L91.563 162.456C91.5976 161.942 91.6099 161.595 91.5926 161.531C91.5606 161.407 91.3633 161.333 91.2227 161.399C91.0945 161.456 91.0822 161.502 91.0082 162.295C90.9712 162.706 90.9293 163.048 90.9194 163.058C90.9022 163.075 89.4942 163.868 89.366 163.936L89.3092 163.965V163.024V162.082L89.869 161.695C90.5446 161.228 90.5915 161.186 90.5915 161.069C90.5915 160.895 90.4879 160.783 90.3276 160.783C90.2413 160.783 89.8813 161.003 89.3956 161.353L89.2969 161.424L89.2821 160.773C89.2698 160.132 89.2673 160.122 89.2106 160.061C89.1613 160.01 89.1317 160 89.001 160C88.8802 160 88.8383 160.01 88.8037 160.049Z" fill="url(#paint6_radial_954_77)"/>
<rect x="40" y="85" width="101" height="5" fill="#FFEAEC"/>
<defs>
<linearGradient id="paint0_linear_954_77" x1="89.5" y1="0" x2="89.5" y2="90" gradientUnits="userSpaceOnUse">
<stop/>
<stop offset="0.591667" stop-color="#414141"/>
<stop offset="0.6125" stop-color="#414141"/>
<stop offset="1" stop-color="#414141" stop-opacity="0.51"/>
</linearGradient>
<radialGradient id="paint1_radial_954_77" cx="0" cy="0" r="1" gradientUnits="userSpaceOnUse" gradientTransform="translate(125 102.5) rotate(90) scale(21.5 23.289)">
<stop offset="0.884536" stop-color="#FFFAFA"/>
<stop offset="1" stop-color="#FFEAEC"/>
</radialGradient>
<radialGradient id="paint2_radial_954_77" cx="0" cy="0" r="1" gradientUnits="userSpaceOnUse" gradientTransform="translate(54 102.5) rotate(90) scale(21.5 23.289)">
<stop offset="0.884536" stop-color="#FFFAFA"/>
<stop offset="1" stop-color="#FFEAEC"/>
</radialGradient>
<linearGradient id="paint3_linear_954_77" x1="97" y1="122" x2="82" y2="122" gradientUnits="userSpaceOnUse">
<stop stop-color="#FBAFAF" stop-opacity="0.8"/>
<stop offset="0.522269" stop-color="#FBAFAF" stop-opacity="0.56"/>
<stop offset="1" stop-color="#FBAFAF" stop-opacity="0.8"/>
</linearGradient>
<linearGradient id="paint4_linear_954_77" x1="12" y1="0" x2="12" y2="90" gradientUnits="userSpaceOnUse">
<stop/>
<stop offset="0.591667" stop-color="#414141"/>
<stop offset="0.6125" stop-color="#414141"/>
<stop offset="1" stop-color="#414141" stop-opacity="0.51"/>
</linearGradient>
<linearGradient id="paint5_linear_954_77" x1="167" y1="0" x2="167" y2="90" gradientUnits="userSpaceOnUse">
<stop/>
<stop offset="0.591667" stop-color="#414141"/>
<stop offset="0.6125" stop-color="#414141"/>
<stop offset="1" stop-color="#414141" stop-opacity="0.51"/>
</linearGradient>
<radialGradient id="paint6_radial_954_77" cx="0" cy="0" r="1" gradientUnits="userSpaceOnUse" gradientTransform="translate(89 164.5) rotate(-92.4312) scale(6.61449 7.50665)">
<stop stop-color="white"/>
<stop offset="1" stop-color="#D7D7D7"/>
</radialGradient>
</defs>
</svg>
