<svg width="88" height="52" viewBox="0 0 88 52" fill="none" xmlns="http://www.w3.org/2000/svg">
<path d="M87 49.7033C83.8717 50.5005 81.9367 49.7383 80.2006 47.1259L67.8542 30.0078L66.0697 27.6378L51.6513 47.1825C50.0039 49.5337 48.2758 50.5571 45.2013 49.7249L63.6644 24.888L46.4752 2.45354C49.4314 1.87719 51.4739 2.17075 53.288 4.82357L66.0939 22.1544L78.9939 4.91784C80.6467 2.56666 82.4232 1.67251 85.3902 2.53973L78.7252 11.395L69.6952 23.1778C68.6202 24.5245 68.768 25.4455 69.757 26.7464L87 49.7033ZM1.0215 24.4733L2.53187 17.0292C6.64375 2.29734 23.4944 -3.82435 35.1151 5.27873C41.9064 10.6328 43.5942 18.2062 43.2582 26.6898H4.9775C4.40238 41.9603 15.3701 51.1765 29.3531 46.4742C34.2578 44.8232 37.1469 40.9746 38.5927 36.1592C39.3264 33.746 40.5412 33.369 42.8041 34.0584C41.6484 40.0805 39.0416 45.1114 33.5322 48.2598C25.3004 52.9729 13.5506 51.4485 7.36937 44.8986C3.6875 41.0985 2.16638 36.283 1.48375 31.1336C1.37625 30.2826 1.16125 29.4719 1 28.6558C1.01433 27.2626 1.0215 25.8693 1.0215 24.476V24.4733ZM5.04738 23.4499H39.6409C39.4151 12.4077 32.5539 4.56503 23.1772 4.49769C12.8841 4.4169 5.4935 12.0737 5.04738 23.4499Z" fill="black"/>
<path d="M87.0617 49.9456L87.4251 49.853L87.1999 49.5532L69.9569 26.5962L69.956 26.5951C69.4704 25.9563 69.2244 25.4514 69.2018 24.9676C69.1796 24.4916 69.3721 23.9833 69.8906 23.3338L69.8936 23.3299L78.9236 11.5471L78.9249 11.5454L85.5899 2.69006L85.8074 2.4012L85.4603 2.29977C83.9415 1.85582 82.6952 1.85383 81.6063 2.2898C80.5224 2.72379 79.6311 3.5774 78.7915 4.77106C78.7908 4.77206 78.7901 4.77306 78.7894 4.77406L66.0952 21.7355L53.4918 4.67866C52.5616 3.31973 51.5552 2.54112 50.3819 2.18822C49.2167 1.83772 47.9189 1.91737 46.4273 2.20816L46.0314 2.28536L46.2767 2.60559L63.3512 24.8903L45.0007 49.5757L44.7817 49.8703L45.136 49.9662C46.7106 50.3924 47.9725 50.3514 49.0614 49.8766C50.1438 49.4047 51.0197 48.5191 51.8543 47.3284C51.8549 47.3276 51.8555 47.3268 51.8561 47.3259L66.0718 28.0562L67.6515 30.1541L67.6545 30.1582L79.9951 47.2684C80.8791 48.5974 81.8327 49.4847 82.989 49.9268C84.1461 50.3692 85.4688 50.3515 87.0617 49.9456ZM0.776492 24.4236L0.7715 24.4482V24.4733V24.476C0.7715 25.8684 0.764338 27.2608 0.750013 28.6533L0.749748 28.679L0.754742 28.7043C0.808601 28.9769 0.867092 29.2436 0.925155 29.5084C1.04554 30.0573 1.16409 30.5979 1.23572 31.1649L1.23592 31.1665C1.92188 36.341 3.45482 41.217 7.18874 45.0715C13.455 51.7101 25.3318 53.2429 33.6562 48.4768C39.2488 45.2809 41.8852 40.1732 43.0496 34.1056L43.0919 33.8848L42.8769 33.8193C41.7345 33.4712 40.7876 33.3679 40.0211 33.7179C39.245 34.0723 38.7278 34.8554 38.3536 36.0864L38.3533 36.0873C36.9238 40.8482 34.0809 44.619 29.2734 46.2372C22.3507 48.5653 16.206 47.4409 11.8646 43.8786C7.56561 40.3511 4.99693 34.4018 5.21921 26.9398H43.2583H43.4985L43.5081 26.6997C43.8455 18.1792 42.1517 10.5078 35.2699 5.0824L35.2693 5.08192C23.4944 -4.14193 6.44598 2.07598 2.29108 16.962L2.28866 16.9707L2.28687 16.9795L0.776492 24.4236ZM23.1753 4.74769L23.1755 4.74769C32.3112 4.81329 39.0614 12.3921 39.3845 23.1999H5.30862C5.57827 17.679 7.50675 13.0758 10.6001 9.85047C13.7404 6.57623 18.0944 4.7078 23.1753 4.74769Z" stroke="white" stroke-opacity="0.5" stroke-width="0.5"/>
</svg>
