<?xml version="1.0" standalone="no"?>
<!DOCTYPE svg PUBLIC "-//W3C//DTD SVG 20010904//EN"
 "http://www.w3.org/TR/2001/REC-SVG-20010904/DTD/svg10.dtd">
<svg version="1.0" xmlns="http://www.w3.org/2000/svg"
 width="44.000000pt" height="44.000000pt" viewBox="0 0 44.000000 44.000000"
 preserveAspectRatio="xMidYMid meet">
<metadata>
Created by potrace 1.16, written by Peter Selinger 2001-2019
</metadata>
<g transform="translate(0.000000,44.000000) scale(0.100000,-0.100000)"
fill="#000000" stroke="none">
<path d="M123 400 c-19 -32 -23 -54 -23 -129 0 -54 4 -91 10 -91 6 0 10 32 10
75 l0 75 40 0 40 0 0 -75 c0 -43 4 -75 10 -75 6 0 10 37 10 91 0 75 -4 97 -22
129 -13 22 -30 40 -38 40 -8 0 -25 -18 -37 -40z"/>
<path d="M256 406 c-20 -43 -21 -76 -1 -76 8 0 15 8 15 18 0 9 5 24 10 32 9
13 11 13 20 0 19 -29 11 -50 -19 -56 -22 -5 -30 -13 -35 -36 -9 -47 -7 -108 4
-108 6 0 10 7 10 16 0 9 9 18 20 21 24 6 27 23 4 23 -12 0 -15 6 -10 23 3 12
6 25 6 30 0 21 19 3 24 -23 3 -16 9 -43 12 -60 12 -62 23 -26 22 73 0 75 -4
109 -16 130 -22 37 -46 34 -66 -7z"/>
<path d="M360 371 c0 -5 12 -11 28 -13 l27 -3 0 -135 0 -135 -122 -3 -123 -3
0 -25 c0 -13 -7 -27 -15 -30 -36 -14 -9 -24 65 -24 74 0 101 10 65 24 -8 3
-15 12 -15 21 0 12 15 15 85 15 l85 0 0 160 0 160 -40 0 c-22 0 -40 -4 -40 -9z"/>
</g>
</svg>
