<svg width="25" height="25" viewBox="0 0 25 25" fill="none" xmlns="http://www.w3.org/2000/svg">
<path d="M9.15493 0.437649C5.38732 1.62559 2.60563 4.00146 0.985915 7.46045C0.140845 9.24235 0 10.011 0 12.5266C0 15.0423 0.140845 15.8109 0.985915 17.6278C5.56338 27.4807 19.3662 27.4457 24.0141 17.5928C24.8592 15.8109 25 15.0423 25 12.5266C25 10.011 24.8592 9.24235 24.0141 7.46045C22.9577 5.18939 21.162 3.12798 19.1549 1.87016C16.4085 0.123196 12.1479 -0.505712 9.15493 0.437649ZM9.57747 12.2471L12.5 15.1471L15.4577 12.2122C18.882 8.90952 18.7092 9.08755 19.4102 9.62668C20.8627 10.7438 13.3803 17.7675 12.5 17.7675C11.6197 17.7675 5.10563 10.9544 5.10563 10.3953C4.97351 10.1682 5.03376 9.96116 5.35211 9.62668C5.9507 8.99778 5.8978 8.59597 9.57747 12.2471Z" fill="black"/>
</svg>
