<?xml version="1.0" standalone="no"?>
<!DOCTYPE svg PUBLIC "-//W3C//DTD SVG 20010904//EN"
 "http://www.w3.org/TR/2001/REC-SVG-20010904/DTD/svg10.dtd">
<svg version="1.0" xmlns="http://www.w3.org/2000/svg"
 width="74.000000pt" height="115.000000pt" viewBox="0 0 74.000000 115.000000"
 preserveAspectRatio="xMidYMid meet">

<g transform="translate(0.000000,115.000000) scale(0.100000,-0.100000)"
fill="#000000" stroke="none">
<path d="M20 1005 c0 -77 4 -125 10 -125 6 0 10 11 10 24 0 53 20 56 325 56
306 0 327 -4 333 -53 2 -15 8 -27 13 -27 5 0 9 54 9 125 0 77 -4 125 -10 125
-5 0 -10 -11 -10 -24 0 -53 -19 -56 -330 -56 -311 0 -330 3 -330 56 0 13 -4
24 -10 24 -6 0 -10 -48 -10 -125z"/>
<path d="M295 829 c-33 -4 -85 -16 -115 -27 l-55 -19 -3 -74 c-3 -105 -7 -116
-47 -130 -19 -7 -35 -17 -35 -21 0 -4 58 -8 130 -8 l130 0 0 -165 c0 -96 -4
-165 -9 -165 -21 0 -67 22 -90 43 -13 12 -34 45 -47 72 l-23 50 0 -76 -1 -76
33 -7 c17 -3 55 -12 82 -20 l50 -14 -1 -45 c-1 -74 -49 -109 -98 -72 -30 23
-73 19 -82 -7 -10 -31 19 -48 83 -48 94 0 152 40 193 133 13 30 27 47 39 47
33 0 120 51 161 96 102 111 116 263 37 395 -64 107 -184 157 -332 138z m3
-152 l3 -107 -26 0 c-14 0 -37 11 -50 25 -22 21 -25 33 -25 99 0 64 3 77 21
89 13 10 30 12 47 8 27 -7 27 -8 30 -114z m218 38 c41 -54 64 -127 64 -203 0
-90 -21 -158 -66 -210 -31 -36 -80 -72 -99 -72 -3 0 -5 121 -5 268 0 190 3
271 12 280 14 14 56 -14 94 -63z"/>
</g>
</svg>
