<svg xmlns="http://www.w3.org/2000/svg">
<symbol id="icon-search" viewBox="0 0 18 18">
  <path fill="currentColor" d="M12.8 11.4c.9-1.2 1.4-2.7 1.4-4.3C14.2 3.2 11 0 7.1 0S0 3.2 0 7.1c0 3.9 3.2 7.1 7.1 7.1 1.6 0 3.1-.5 4.3-1.4l5.2 5.2 1.4-1.4-5.2-5.2zM2 7.1C2 4.3 4.3 2 7.1 2s5.1 2.3 5.1 5.1-2.3 5.1-5.1 5.1S2 9.9 2 7.1z"/>
</symbol>

<symbol id="icon-whatsapp" viewBox="0 0 24 24">
  <path fill="currentColor" d="M19.077,4.928C17.191,3.041,14.683,2.001,12.011,2c-5.506,0-9.987,4.479-9.989,9.985c-0.001,1.76,0.459,3.478,1.333,4.992L2,22l5.233-1.237c1.459,0.796,3.101,1.215,4.773,1.216h0.004c5.505,0,9.986-4.48,9.989-9.985C22.001,9.325,20.963,6.816,19.077,4.928z M16.898,15.554c-0.208,0.583-1.227,1.145-1.685,1.186c-0.458,0.042-0.887,0.207-2.995-0.624c-2.537-1-4.139-3.601-4.263-3.767c-0.125-0.167-1.019-1.353-1.019-2.581S7.581,7.936,7.81,7.687c0.229-0.25,0.499-0.312,0.666-0.312c0.166,0,0.333,0,0.478,0.006c0.178,0.007,0.375,0.016,0.562,0.431c0.222,0.494,0.707,1.728,0.769,1.853s0.104,0.271,0.021,0.437s-0.125,0.27-0.249,0.416c-0.125,0.146-0.262,0.325-0.374,0.437c-0.125,0.124-0.255,0.26-0.11,0.509c0.146,0.25,0.646,1.067,1.388,1.728c0.954,0.85,1.757,1.113,2.007,1.239c0.25,0.125,0.395,0.104,0.541-0.063c0.146-0.166,0.624-0.728,0.79-0.978s0.333-0.208,0.562-0.125s1.456,0.687,1.705,0.812c0.25,0.125,0.416,0.187,0.478,0.291C17.106,14.471,17.106,14.971,16.898,15.554z"/>
</symbol>

<symbol id="icon-linkedin" viewBox="0 0 24 24">
  <path fill="currentColor" d="M19 0h-14c-2.761 0-5 2.239-5 5v14c0 2.761 2.239 5 5 5h14c2.762 0 5-2.239 5-5v-14c0-2.761-2.238-5-5-5zm-11 19h-3v-11h3v11zm-1.5-12.268c-.966 0-1.75-.79-1.75-1.764s.784-1.764 1.75-1.764 1.75.79 1.75 1.764-.783 1.764-1.75 1.764zm13.5 12.268h-3v-5.604c0-3.368-4-3.113-4 0v5.604h-3v-11h3v1.765c1.396-2.586 7-2.777 7 2.476v6.759z"/>
</symbol>

<symbol id="icon-github" viewBox="0 0 24 24">
  <path fill="currentColor" d="M12 0c-6.626 0-12 5.373-12 12 0 5.302 3.438 9.8 8.207 11.387.599.111.793-.261.793-.577v-2.234c-3.338.726-4.033-1.416-4.033-1.416-.546-1.387-1.333-1.756-1.333-1.756-1.089-.745.083-.729.083-.729 1.205.084 1.839 1.237 1.839 1.237 1.07 1.834 2.807 1.304 3.492.997.107-.775.418-1.305.762-1.604-2.665-.305-5.467-1.334-5.467-5.931 0-1.311.469-2.381 1.236-3.221-.124-.303-.535-1.524.117-3.176 0 0 1.008-.322 3.301 1.23.957-.266 1.983-.399 3.003-.404 1.02.005 2.047.138 3.006.404 2.291-1.552 3.297-1.23 3.297-1.23.653 1.653.242 2.874.118 3.176.77.84 1.235 1.911 1.235 3.221 0 4.609-2.807 5.624-5.479 5.921.43.372.823 1.102.823 2.222v3.293c0 .319.192.694.801.576 4.765-1.589 8.199-6.086 8.199-11.386 0-6.627-5.373-12-12-12z"/>
</symbol>

<symbol id="icon-gmail" viewBox="0 0 45 45">
  <path fill="currentColor" d="M 10.5 8 C 6.9280619 8 4 10.928062 4 14.5 L 4 33.5 C 4 37.071938 6.9280619 40 10.5 40 L 37.5 40 C 41.071938 40 44 37.071938 44 33.5 L 44 14.5 C 44 10.928062 41.071938 8 37.5 8 L 10.5 8 z M 11.472656 11 L 36.527344 11 L 24 17.771484 L 11.472656 11 z M 7.7207031 12.380859 L 23.287109 20.794922 A 1.50015 1.50015 0 0 0 24.712891 20.794922 L 40.279297 12.380859 C 40.725761 12.968283 41 13.695891 41 14.5 L 41 33.5 C 41 35.278649 39.706386 36.710743 38 36.951172 L 38 19.742188 A 1.50015 1.50015 0 0 0 35.787109 18.423828 L 24 24.794922 L 12.212891 18.423828 A 1.50015 1.50015 0 0 0 11.494141 18.242188 A 1.50015 1.50015 0 0 0 10 19.742188 L 10 36.951172 C 8.2936141 36.710743 7 35.278649 7 33.5 L 7 14.5 C 7 13.695891 7.2742388 12.968283 7.7207031 12.380859 z M 13 22.259766 L 23.287109 27.820312 A 1.50015 1.50015 0 0 0 24.712891 27.820312 L 35 22.259766 L 35 37 L 13 37 L 13 22.259766 z"/>
</symbol>

<symbol id="icon-view-default" viewBox="0 0 18 18"><g fill="currentColor"><path d="M8 11H0V0h8v11zM18 5h-8V0h8v5zM8 18H0v-5h8v5zM18 18h-8V7h8v11z"/></g></symbol><symbol id="icon-view-alt" viewBox="0 0 18 18"><g fill="currentColor"><path d="M8 8H0V0h8v8zM18 8h-8V0h8v8zM8 18H0v-8h8v8zM18 18h-8v-8h8v8z"/></g></symbol><symbol id="icon-view-full" viewBox="0 0 18 18"><g fill="currentColor"><path d="M18 8H0V0h18v8zM18 18H0v-8h18v8z"/></g></symbol><symbol id="icon-facebook" viewBox="0 0 9 19"><path fill="currentColor" d="M6.7 3.6H9V0H6.3c-3.3.1-4 2.1-4 4.1V6H0v3.5h2.2V19h3.4V9.5h2.8L8.9 6H5.6V4.9c0-.7.4-1.3 1.1-1.3z"/></symbol><symbol id="icon-twitter" viewBox="0 0 17.9 15"><path fill="currentColor" d="M17.9 1.8c-.3.2-1.2.5-2 .6.5-.3 1.3-1.3 1.5-2.1-.5.3-1.7.8-2.3.8C14.4.5 13.5 0 12.4 0c-2 0-3.7 1.7-3.7 3.8 0 .3 0 .6.1.8-2.8-.1-6-1.5-7.8-4-1.1 2-.2 4.2 1.1 5-.4 0-1.2-.1-1.6-.4 0 1.3.6 3.1 2.9 3.7-.5.4-1.3.3-1.6.3.1 1.1 1.6 2.6 3.3 2.6-.6.7-2.6 2-5.1 1.6 1.7 1 3.7 1.6 5.8 1.6 6 0 10.6-5 10.3-11.1v-.1c.6-.4 1.3-1.1 1.8-2z"/></symbol><symbol id="icon-pinterest" viewBox="0 0 18 18"><path fill="currentColor" d="M2.3 0h13.4C17 0 18 .9 18 2.3v13.4c0 1.4-1 2.3-2.3 2.3H2.3C1 18 0 17.1 0 15.7V2.3C0 .9 1 0 2.3 0zm10.8 2c-.4 0-.8.4-.8.8v1.9c0 .4.4.8.8.8h2c.4 0 .8-.4.8-.8V2.8c.1-.4-.3-.8-.8-.8h-2zM16 7.6h-1.6c.2.5.2 1 .2 1.5 0 3-2.5 5.4-5.6 5.4-3.1 0-5.6-2.4-5.6-5.4 0-.5.1-1.1.2-1.5H2v7.6c0 .4.3.7.7.7h12.5c.4 0 .7-.3.7-.7l.1-7.6zM9 5.5C7 5.5 5.4 7 5.4 9c0 1.9 1.6 3.5 3.6 3.5s3.6-1.6 3.6-3.5c0-2-1.6-3.5-3.6-3.5z"/></symbol><symbol id="icon-tumblr" viewBox="0 0 11 19"><path fill="currentColor" d="M8.6 15.9c-1.6 0-2.3-1.3-2.3-2.2V7.8h4.1v-3h-4V.1S4.7 0 3.5 0C3.5 4.1 0 4.9 0 4.9v2.8h2.3v7C2.3 17.1 4.4 19 7 19s4-1.1 4-1.1v-3.1c0 .1-.8 1.1-2.4 1.1z"/></symbol><symbol id="icon-menu" viewBox="0 0 274.5 224.5"><g fill="currentColor"><path d="M274 53.8H.5V.5H274v53.3zM274 138.9H.5V85.6H274v53.3zM274 224H.5v-53.3H274V224z"/></g></symbol>
<symbol id="bar" viewBox="0 0 274.5 54.3">
  <path fill="white" d="M274 53.8H.5V.5H274v53.3z"/>
</symbol>
<symbol id="arrow" viewBox="0 0 38 14"><path fill="currentColor" d="M31 0l-1.4 1.4L34.2 6H0v2h34.2l-4.6 4.6L31 14l7-7-7-7z"/></symbol><symbol id="refresh" viewBox="0 0 19 16"><path fill="currentColor" d="M9.4 6.2l5.9 4.4L19 4.4l-1.7-1L15.7 6c-.9-3.5-4-6-7.7-6-4.4 0-8 3.6-8 8s3.6 8 8 8c2.1 0 4.1-.8 5.6-2.3l-1.4-1.4C11.1 13.3 9.6 14 8 14c-3.3 0-6-2.7-6-6s2.7-6 6-6c3 0 5.4 2.2 5.9 5l-3.3-2.4-1.2 1.6z"/></symbol></svg>
